# xmcd
#
# Track frame offsets: 
#        150
#        13337
#        25300
#        35087
#        52710
#        68457
#        82637
#        95342
#        107454
#        120357
#        123582
#        138250
#        157840
#        171267
#        181360
#        194935
#        199810
#        210162
#        225532
#        240595
#        251667
#        263897
#        278927
#        292417
#
# Disc length: 3909 seconds
#
# Revision: 0
# Processed by: cddbd v1.4PL0 Copyright (c) Steve Scherf et al.
# Submitted via: ExactAudioCopy v0.90a11
#
DISCID=4d0f4318
DTITLE=Cornell Hurd Band - Texas Fruit Shack
DYEAR=1900
DGENRE=
TTITLE0=(Set 'Em Up) I'm Afraid To Go Home
TTITLE1=Don't Ever Take My Picture Down
TTITLE2=Heaven Hell Or Houston
TTITLE3=Texas Fruit Shack
TTITLE4=I Only Think About You Every Day
TTITLE5=My Missing Years
TTITLE6=I Don't Want To Love Anyone This Much Again
TTITLE7=Those Mind-Breakin' Blues
TTITLE8=I'm Not Crazy Yet
TTITLE9=Interlude
TTITLE10=Just Like Two Drops Of Water
TTITLE11=Jethro
TTITLE12=Tearin' Up A Yardbird
TTITLE13=It's Time To Fade Away Wanda Jane
TTITLE14=Talk About Me
TTITLE15=Interlude
TTITLE16=The End Of The Road
TTITLE17=I'm A Linda-holic
TTITLE18=It Wouldn't Be Hell Without You
TTITLE19=Along The Navajo Trail
TTITLE20=Detour
TTITLE21=Good Rockin' Tonight
TTITLE22=I Got Your Stinkin' Beguine Right Here
TTITLE23=Interlude
EXTD=
EXTT0=
EXTT1=
EXTT2=
EXTT3=
EXTT4=
EXTT5=
EXTT6=
EXTT7=
EXTT8=
EXTT9=
EXTT10=
EXTT11=
EXTT12=
EXTT13=
EXTT14=
EXTT15=
EXTT16=
EXTT17=
EXTT18=
EXTT19=
EXTT20=
EXTT21=
EXTT22=
EXTT23=
PLAYORDER=
